<svg width="61.000000" height="74.000000" viewBox="0 0 61 74" fill="none" xmlns="http://www.w3.org/2000/svg" xmlns:xlink="http://www.w3.org/1999/xlink">
	<desc>
			Created with Pixso.
	</desc>
	<defs/>
	<path id="Vector" d="M50.11 0C33.41 8.25 16.7 16.5 0 24.75C0 26.29 0 27.84 0.01 29.38C0 29.38 0 29.38 0 29.38C0 31.1 0 32.81 0.01 34.53C0.01 34.53 0 34.53 0 34.54C0 36.08 0 37.62 0.01 39.16C0 39.16 0 39.17 0 39.17C0.02 46.39 0.04 53.62 0.06 60.84C3.56 63.68 7.06 66.52 10.56 69.36C11.81 68.69 13.07 68.03 14.32 67.36C17.31 69.57 20.3 71.78 23.29 74C26.68 68.85 30.08 63.71 33.47 58.57C42.64 53.82 51.82 49.08 61 44.33L61 7.87C57.37 5.24 53.74 2.62 50.11 0ZM15.12 63.32L14.1 64.83L13.96 64.83C13.92 64.22 13.88 63.6 13.85 62.98C13.75 61.31 13.66 59.65 13.56 57.98C13.48 56.65 13.41 55.33 13.33 54C13.31 54.01 13.3 54.01 13.28 54.02L7.34 56.97L3.41 58.92L1.78 59.73L1.78 26.03L49.33 2.41L49.33 36.1L25.45 47.97C22.78 51.94 20.11 55.91 17.43 59.88C16.66 61.02 15.89 62.17 15.12 63.32Z" fill="#AE7AFF" fill-opacity="1.000000" fill-rule="nonzero"/>
	<path id="Vector" d="M7.4 38.22L7.4 31.04L4.75 32.35L4.75 29.01L13.88 24.5L13.88 27.83L11.22 29.14L11.22 36.32L7.39 38.22L7.4 38.22Z" fill="#AE7AFF" fill-opacity="1.000000" fill-rule="nonzero"/>
	<path id="Vector" d="M7.4 38.22L7.4 31.04L4.75 32.35L4.75 29.01L13.88 24.5L13.88 27.83L11.22 29.14L11.22 36.32L7.39 38.22L7.4 38.22Z" fill="#FFFFFF" fill-opacity="0.800000" fill-rule="nonzero"/>
	<path id="Vector" d="M15.25 34.33L15.25 23.82L19.07 21.92L19.07 32.44L15.25 34.33Z" fill="#AE7AFF" fill-opacity="1.000000" fill-rule="nonzero"/>
	<path id="Vector" d="M15.25 34.33L15.25 23.82L19.07 21.92L19.07 32.44L15.25 34.33Z" fill="#FFFFFF" fill-opacity="0.800000" fill-rule="nonzero"/>
	<path id="Vector" d="M27.64 28.2C27.17 27.41 26.79 26.85 26.49 26.51C26.19 26.16 25.9 25.96 25.61 25.89C25.33 25.82 24.99 25.87 24.58 26.05L24.58 29.71L20.75 31.61L20.75 21.09L24.58 19.2L24.58 22.69C24.95 22.47 25.26 22.2 25.51 21.87C25.77 21.53 26.03 21.07 26.29 20.48C26.55 19.89 26.88 19.01 27.27 17.86L31.48 15.78C31.18 16.62 30.91 17.32 30.68 17.9C30.45 18.47 30.21 19 29.98 19.49C29.74 19.97 29.52 20.36 29.31 20.67C29.11 20.99 28.88 21.27 28.62 21.54C28.36 21.81 28.1 22.04 27.83 22.22C27.57 22.41 27.25 22.6 26.88 22.8L26.88 23.66C27.3 23.47 27.67 23.33 27.98 23.24C28.29 23.15 28.59 23.11 28.88 23.12C29.18 23.12 29.44 23.18 29.67 23.29C29.9 23.39 30.14 23.57 30.4 23.82C30.65 24.07 30.9 24.37 31.15 24.72C31.39 25.07 31.66 25.52 31.97 26.05L27.64 28.2L27.64 28.2Z" fill="#AE7AFF" fill-opacity="1.000000" fill-rule="nonzero"/>
	<path id="Vector" d="M27.64 28.2C27.17 27.41 26.79 26.85 26.49 26.51C26.19 26.16 25.9 25.96 25.61 25.89C25.33 25.82 24.99 25.87 24.58 26.05L24.58 29.71L20.75 31.61L20.75 21.09L24.58 19.2L24.58 22.69C24.95 22.47 25.26 22.2 25.51 21.87C25.77 21.53 26.03 21.07 26.29 20.48C26.55 19.89 26.88 19.01 27.27 17.86L31.48 15.78C31.18 16.62 30.91 17.32 30.68 17.9C30.45 18.47 30.21 19 29.98 19.49C29.74 19.97 29.52 20.36 29.31 20.67C29.11 20.99 28.88 21.27 28.62 21.54C28.36 21.81 28.1 22.04 27.83 22.22C27.57 22.41 27.25 22.6 26.88 22.8L26.88 23.66C27.3 23.47 27.67 23.33 27.98 23.24C28.29 23.15 28.59 23.11 28.88 23.12C29.18 23.12 29.44 23.18 29.67 23.29C29.9 23.39 30.14 23.57 30.4 23.82C30.65 24.07 30.9 24.37 31.15 24.72C31.39 25.07 31.66 25.52 31.97 26.05L27.64 28.2L27.64 28.2Z" fill="#FFFFFF" fill-opacity="0.800000" fill-rule="nonzero"/>
	<path id="Vector" d="M32.09 22.48L32.09 20.17L37.34 17.57L37.34 19.88L32.09 22.48Z" fill="#AE7AFF" fill-opacity="1.000000" fill-rule="nonzero"/>
	<path id="Vector" d="M32.09 22.48L32.09 20.17L37.34 17.57L37.34 19.88L32.09 22.48Z" fill="#FFFFFF" fill-opacity="0.800000" fill-rule="nonzero"/>
	<path id="Vector" d="M7.4 52.59L7.4 45.41L4.75 46.72L4.75 43.39L13.88 38.87L13.88 42.2L11.22 43.52L11.22 50.69L7.39 52.59L7.4 52.59Z" fill="#AE7AFF" fill-opacity="1.000000" fill-rule="nonzero"/>
	<path id="Vector" d="M7.4 52.59L7.4 45.41L4.75 46.72L4.75 43.39L13.88 38.87L13.88 42.2L11.22 43.52L11.22 50.69L7.39 52.59L7.4 52.59Z" fill="#FFFFFF" fill-opacity="0.800000" fill-rule="nonzero"/>
	<path id="Vector" d="M17.53 47.57L13.58 49.53L17.22 37.21L21.77 34.96L25.41 43.67L21.45 45.63L21.09 44.62L17.89 46.2L17.53 47.57ZM18.53 43.31L20.46 42.35C20.28 41.76 20.15 41.24 20.08 40.8C20.01 40.35 19.96 39.75 19.94 39.02L19.04 39.46C19.01 40.23 18.97 40.87 18.9 41.39C18.84 41.9 18.71 42.54 18.53 43.31L18.53 43.31Z" fill="#AE7AFF" fill-opacity="1.000000" fill-rule="nonzero"/>
	<path id="Vector" d="M17.53 47.57L13.58 49.53L17.22 37.21L21.77 34.96L25.41 43.67L21.45 45.63L21.09 44.62L17.89 46.2L17.53 47.57ZM18.53 43.31L20.46 42.35C20.28 41.76 20.15 41.24 20.08 40.8C20.01 40.35 19.96 39.75 19.94 39.02L19.04 39.46C19.01 40.23 18.97 40.87 18.9 41.39C18.84 41.9 18.71 42.54 18.53 43.31L18.53 43.31Z" fill="#FFFFFF" fill-opacity="0.800000" fill-rule="nonzero"/>
	<path id="Vector" d="M26.49 43.14L26.49 32.63L30.31 30.73L30.31 37.91L33.94 36.12L33.94 39.45L26.49 43.14L26.49 43.14Z" fill="#AE7AFF" fill-opacity="1.000000" fill-rule="nonzero"/>
	<path id="Vector" d="M26.49 43.14L26.49 32.63L30.31 30.73L30.31 37.91L33.94 36.12L33.94 39.45L26.49 43.14L26.49 43.14Z" fill="#FFFFFF" fill-opacity="0.800000" fill-rule="nonzero"/>
	<path id="Vector" d="M42.17 35.38C41.7 34.59 41.32 34.03 41.02 33.69C40.72 33.35 40.43 33.14 40.14 33.07C39.86 33 39.52 33.06 39.11 33.23L39.11 36.89L35.28 38.79L35.28 28.27L39.11 26.38L39.11 29.87C39.48 29.65 39.79 29.38 40.04 29.05C40.3 28.72 40.56 28.25 40.82 27.66C41.08 27.07 41.41 26.2 41.8 25.05L46.01 22.96C45.71 23.8 45.44 24.5 45.21 25.08C44.98 25.66 44.75 26.19 44.51 26.67C44.27 27.15 44.05 27.55 43.85 27.86C43.64 28.17 43.41 28.46 43.15 28.73C42.89 28.99 42.63 29.22 42.36 29.4C42.1 29.59 41.78 29.78 41.41 29.98L41.41 30.84C41.84 30.65 42.2 30.51 42.51 30.42C42.82 30.34 43.12 30.29 43.42 30.3C43.71 30.31 43.97 30.36 44.2 30.47C44.43 30.57 44.68 30.75 44.93 31C45.19 31.25 45.43 31.55 45.68 31.9C45.92 32.26 46.2 32.7 46.5 33.24L42.17 35.38L42.17 35.38Z" fill="#AE7AFF" fill-opacity="1.000000" fill-rule="nonzero"/>
	<path id="Vector" d="M42.17 35.38C41.7 34.59 41.32 34.03 41.02 33.69C40.72 33.35 40.43 33.14 40.14 33.07C39.86 33 39.52 33.06 39.11 33.23L39.11 36.89L35.28 38.79L35.28 28.27L39.11 26.38L39.11 29.87C39.48 29.65 39.79 29.38 40.04 29.05C40.3 28.72 40.56 28.25 40.82 27.66C41.08 27.07 41.41 26.2 41.8 25.05L46.01 22.96C45.71 23.8 45.44 24.5 45.21 25.08C44.98 25.66 44.75 26.19 44.51 26.67C44.27 27.15 44.05 27.55 43.85 27.86C43.64 28.17 43.41 28.46 43.15 28.73C42.89 28.99 42.63 29.22 42.36 29.4C42.1 29.59 41.78 29.78 41.41 29.98L41.41 30.84C41.84 30.65 42.2 30.51 42.51 30.42C42.82 30.34 43.12 30.29 43.42 30.3C43.71 30.31 43.97 30.36 44.2 30.47C44.43 30.57 44.68 30.75 44.93 31C45.19 31.25 45.43 31.55 45.68 31.9C45.92 32.26 46.2 32.7 46.5 33.24L42.17 35.38L42.17 35.38Z" fill="#FFFFFF" fill-opacity="0.800000" fill-rule="nonzero"/>
</svg>
