<?xml version="1.0" encoding="UTF-8"?>
<svg xmlns="http://www.w3.org/2000/svg" xmlns:xlink="http://www.w3.org/1999/xlink" width="0" height="0"
     style="display: none;">

    <symbol id="eye" width="18.320312" height="15.820312" viewBox="0 0 18.3203 15.8203" fill="currentColor">
        <path
            d="M1.91 0L0.85 1.05C0.93 1.13 1.25 1.45 1.79 2.03L3.12 3.35C2.55 3.8 1.95 4.44 1.32 5.27Q0.42 6.48 0 7.5Q0.53 8.86 1.39 9.96Q2.3 11.14 3.59 12.03Q4.72 12.8 5.97 13.23Q7.48 13.75 9.17 13.75Q11.01 13.75 12.6 13.13Q12.7 13.09 12.81 13.04L14.37 14.6C15.07 15.28 15.49 15.69 15.62 15.82L16.67 14.76L1.91 0ZM7.65 3.63C8.15 3.42 8.65 3.32 9.17 3.32Q10 3.32 10.71 3.6Q11.47 3.91 12.1 4.57Q12.76 5.2 13.07 5.96Q13.35 6.67 13.35 7.5Q13.35 7.74 13.32 7.97Q13.26 8.5 13.04 9.02L15.46 11.44Q16.53 10.52 17.3 9.4Q17.9 8.51 18.32 7.5C17.59 5.62 16.39 4.11 14.72 2.96Q13.68 2.24 12.53 1.82Q10.95 1.25 9.17 1.25Q7.38 1.25 5.85 1.83L7.65 3.63ZM9.17 5L9.06 5L11.67 7.65L11.67 7.5Q11.67 7.04 11.53 6.65Q11.35 6.15 10.93 5.74C10.44 5.24 9.85 5 9.17 5ZM5 7.5C5 6.9 5.15 6.28 5.46 5.66L6.75 6.95C6.7 7.16 6.67 7.34 6.67 7.5Q6.67 7.95 6.82 8.34Q7 8.84 7.42 9.25Q7.83 9.67 8.33 9.85Q8.72 10 9.17 10C9.33 10 9.51 9.97 9.72 9.92L11.01 11.21C10.39 11.52 9.77 11.67 9.17 11.67Q8.35 11.67 7.64 11.4Q6.86 11.1 6.21 10.46Q5.57 9.81 5.27 9.03Q5 8.32 5 7.5Z"
            fill-opacity="0.750000" fill-rule="evenodd"/>
    </symbol>

    <symbol id="telegram" width="16.640625" height="16.640625" viewBox="0 0 16.6406 16.6406" fill="currentColor">
        <path
            d="M11.52 0.66C10.53 0.22 9.46 0 8.32 0Q7.11 -7.16e-7 6 0.32Q5.53 0.46 5.07 0.66C4.08 1.08 3.2 1.67 2.42 2.46Q2.15 2.73 1.9 3.02Q1.13 3.95 0.62 5.11C0.2 6.1 0 7.17 0 8.32Q-1.2e-7 9.66 0.38 10.89Q0.48 11.23 0.62 11.56Q0.94 12.27 1.37 12.91Q1.83 13.61 2.42 14.21C3.2 14.97 4.08 15.57 5.07 16.01C6.09 16.43 7.17 16.64 8.32 16.64C9.46 16.64 10.53 16.43 11.52 16.01C12.53 15.57 13.42 14.97 14.17 14.21Q14.99 13.4 15.54 12.44Q15.78 12.01 15.97 11.56C16.41 10.54 16.64 9.46 16.64 8.32C16.64 7.17 16.41 6.1 15.97 5.11C15.55 4.1 14.96 3.21 14.17 2.46Q13.68 1.94 13.1 1.53Q12.37 1.01 11.52 0.66ZM12.18 5.46L12.18 5.66C12.16 5.97 12.1 6.39 12.03 6.91C11.95 7.43 11.86 7.99 11.75 8.59C11.67 9.16 11.58 9.72 11.48 10.27Q11.36 11.09 11.25 11.64C11.19 11.95 11.11 12.17 11.01 12.3C10.91 12.43 10.79 12.5 10.66 12.5C10.42 12.52 10.2 12.47 10 12.34C9.81 12.18 9.6 12.03 9.37 11.87C9.01 11.64 8.69 11.43 8.43 11.25C8.17 11.06 7.86 10.85 7.5 10.62C7.23 10.44 7.09 10.28 7.07 10.15C7.07 10.02 7.13 9.89 7.26 9.76C7.39 9.6 7.53 9.45 7.69 9.29C7.72 9.27 7.81 9.19 7.96 9.06L8.51 8.51C8.75 8.3 8.97 8.09 9.17 7.89C9.41 7.68 9.59 7.5 9.72 7.34L10 7.07C10 7.01 9.98 6.96 9.96 6.91C9.93 6.88 9.86 6.88 9.76 6.91Q9.68 6.91 6.25 9.21C5.91 9.45 5.61 9.57 5.35 9.57C5.19 9.54 4.98 9.5 4.72 9.45C4.49 9.37 4.27 9.3 4.06 9.25C3.8 9.15 3.58 9.07 3.39 9.02C3.21 8.94 3.13 8.84 3.16 8.71C3.19 8.55 3.39 8.39 3.78 8.24Q5.58 7.46 6.79 6.95Q8.04 6.4 8.63 6.13L10.39 5.42C10.8 5.27 11.1 5.16 11.28 5.11Q11.6 5 11.75 5Q11.79 5 11.87 5.03C11.95 5.03 12.01 5.06 12.07 5.11Q12.11 5.14 12.14 5.18Q12.18 5.25 12.18 5.35L12.18 5.46Z"
            fill-opacity="1.000000" fill-rule="evenodd"/>
    </symbol>
    <symbol id="home" width="16.000000" height="16.000000" viewBox="0 0 16 16" fill="currentColor">

        <path
            d="M6.65 13.34L3.34 13.34L3.34 8L1.34 8L8 2L14.65 8L12.65 8L12.65 13.34L9.34 13.34L9.34 9.34L6.65 9.34L6.65 13.34Z"
            fill="currentColor" fill-opacity="1.000000"/>
    </symbol>
    <symbol id="chat" width="13.312500" height="13.312500" viewBox="0 0 13.3125 13.3125" fill="currentColor">
        <path
            d="M10.65 4L10.65 2.65L2.65 2.65L2.65 4L10.65 4ZM8 8L8 6.65L2.65 6.65L2.65 8L8 8ZM2.65 4.65L2.65 6L10.65 6L10.65 4.65L2.65 4.65ZM12 0C12.35 0 12.65 0.13 12.9 0.4C13.17 0.65 13.31 0.95 13.31 1.31L13.31 9.31C13.31 9.66 13.17 9.97 12.9 10.25C12.65 10.52 12.35 10.65 12 10.65L2.65 10.65L0 13.31L0 1.31C0 0.95 0.12 0.65 0.37 0.4C0.64 0.13 0.95 0 1.31 0L12 0Z"
            fill="currentColor" fill-opacity="1.000000"/>
    </symbol>
    <symbol id="search" width="16.000000" height="16.000000" viewBox="0 0 16 16">
        <path id="Vector"
              d="M4.21 8.46C4.8 9.05 5.51 9.34 6.34 9.34C7.17 9.34 7.88 9.05 8.46 8.46C9.05 7.88 9.34 7.17 9.34 6.34C9.34 5.51 9.05 4.8 8.46 4.21C7.88 3.63 7.17 3.34 6.34 3.34C5.51 3.34 4.8 3.63 4.21 4.21C3.63 4.8 3.34 5.51 3.34 6.34C3.34 7.17 3.63 7.88 4.21 8.46ZM10.34 9.34L13.65 12.65L12.65 13.65L9.34 10.34L9.34 9.81L9.15 9.62C8.36 10.31 7.42 10.65 6.34 10.65C5.13 10.65 4.1 10.23 3.25 9.4C2.41 8.57 2 7.55 2 6.34C2 5.13 2.41 4.11 3.25 3.28C4.1 2.42 5.13 2 6.34 2C7.55 2 8.57 2.42 9.4 3.28C10.23 4.11 10.65 5.13 10.65 6.34C10.65 6.78 10.55 7.28 10.34 7.84C10.13 8.38 9.89 8.82 9.62 9.15L9.81 9.34L10.34 9.34Z"
              fill="currentColor" fill-opacity="1.000000"  fill-rule="evenodd"/>

    </symbol>


</svg>
